<svg version="1" xmlns="http://www.w3.org/2000/svg" width="400" height="400" viewBox="0 0 300.000000 300.000000"><path d="M208.6 9.2c-1.1.6-4.1 1-6.8.9-3.8-.1-5 .2-5.5 1.6-.3 1-1.3 3.4-2.1 5.3s-1.4 4.1-1.3 4.8c.1.7-.3 2.8-.9 4.7-.8 2.5-2 3.7-4.5 4.5-3.8 1.2-7.9 6.2-8 9.5 0 2.2-4.7 4.3-9.8 4.4-2.5.1-2.7.4-2.1 2.3.9 2.8.9 4.5-.1 8.3-.4 1.6-.4 2.7 0 2.3.9-.9 3.5 3.6 3.5 6 0 .8.3 1.3.6.9.7-.6 3.4 1.7 3.6 3 0 .4.9 1.4 2 2.1 1 .7 1.6 1.7 1.3 2.2-.3.5.3 1.3 1.2 1.9 1.7 1 1.7 1 .1 1.1-1 0-1.8-.4-1.8-1 0-.5-.8-.7-1.7-.4-1.6.5-1.6.4-.3-.6s1.3-1.1-.2-.7c-.9.3-1.9-.1-2.2-.9-.9-2.4-.7-2.7.9-1.4 2.6 2.1 2.3.7-.4-1.9-1.5-1.5-2.2-1.8-1.8-.7.4.9.3 1.6-.2 1.6-.4 0-.8.7-.8 1.5s.4 1.2.8 1c.4-.3 1 .2 1.3 1.1.4 1.2.2 1.5-.9 1-.8-.3-1.5-.1-1.5.4 0 .6.8 1 1.8 1 1.6.1 1.6.1 0 1.4-1 .7-1.8 1.7-1.8 2.2 0 .4.5.3 1.2-.4 2.6-2.6 2.9-1 .4 2.2-2.5 3.3-2.5 3.5-.5 3.1 1.6-.3 1.9-.1 1.4 1.3-.4.9-.8 2.4-.9 3.2 0 .8-1 2.1-2.1 2.8-1.9 1.2-1.9 1.2.5.7 2.3-.6 2.4-.5.7.8-1.6 1.3-1.6 1.5-.2 2.1.9.3 1.3.2 1-.4-.3-.6-.2-1 .4-1 1.5 0 2.3 1.8 1.1 2.5-.6.4-.8 1.1-.5 1.6.4.5.1.9-.5.9s-.8.5-.4 1.2.3.8-.4.4-1.3-1.7-1.3-2.9c-.1-1.6-.3-1.7-.6-.5-.4 1.7-3.7 1.7-7.8-.1-1.1-.5-3.5-1.4-5.2-2.1-1.8-.7-3-1.6-2.7-2.1.3-.5-.2-.6-1-.3s-2.4 0-3.6-.6c-1.2-.6-3.4-1.3-4.8-1.6-5-.7-6.1-1-6.8-1.7-.4-.3-1.4-.2-2.4.3-.9.5-3 1.1-4.6 1.3-1.6.3-2.8 1-2.6 1.6.1.7-.2 1-.7.6-.6-.3-2.5.8-4.2 2.4-3 2.9-5.6 3.3-4.6.7.3-.7-.1-1.3-.9-1.4-.8-.1-2-.3-2.7-.4-.8-.1-1.4-.7-1.4-1.5 0-.7.2-1.1.5-.8 1.2 1.2 4.4-4.9 4.4-8.3 0-2.4.8-4.8 2.4-6.9 2.6-3.4 2.5-5.9-.2-11.2-1.7-3.3-1.7-5.1-.1-7.6.8-1.1 1.9-3.5 2.5-5.3.9-2.7.9-3.4-.3-3.9-.8-.3-1.2-.9-.9-1.4.3-.5.8-2.8 1.2-5.1.7-4.2.6-4.3-4.3-8.7-2.8-2.5-5-5.4-5-6.5 0-1.3-1-2.2-3-2.8-3.6-.9-17.8-.3-22 1-11.9 3.7-24.6 13.7-28.7 22.9-2.5 5.4-3.4 20.2-1.5 23.8 1.5 2.7 1.7 4.6.6 3.9-.5-.3-.9-.1-.9.4 0 .6-1 .8-2.2.5-1.7-.3-1.9-.2-.9.5 1.1.8 1.1 1.1 0 1.6-.8.3-.3.3 1.1 0 2.3-.5 2.4-.4.7.9-2.3 1.9-2.2 3 .2 1.7 1.1-.5 2.3-1 2.8-1 .4.1-.3.7-1.6 1.4-1.4.8-3 1.2-3.7.9-.7-.2-1.5.1-2 .8-.4.7-.3 1 .3.6 1-.6 2.6 1.5 2.8 3.8 0 .5.4 1.6.8 2.2.6.9.3 1.1-.7.7-.9-.3-1.6-.1-1.6.5s.5 1.1 1.1 1.1c.5 0 .7.5.4 1-.4.6-1.2.7-1.8.4-.9-.5-.9-.4 0 .6.6.7.9 2 .6 2.9-.4 1.3-.3 1.4.5.1.6-.8.8-1.8.5-2.4-.4-.5-.1-.6.6-.1.8.4 1 1.7.6 3.3-.6 2.3-.5 2.4 1.1 1.1 1.1-.9 1.5-.9 1-.2-.4.8-.2 1.3.5 1.3s.5.8-.7 2.2c-1 1.2-1.4 1.8-.7 1.5.6-.4 1.8-.1 2.6.8 1.3 1.3 1.6 1.3 2.1-.1.3-.8.2-1.3-.2-1-.4.2-.8-.4-.8-1.4 0-1.8.1-1.8 1.7-.2.9 1 1.2 2 .7 2.3-.7.4-.6 1.3 0 2.5.6 1.1.9 2.2.9 2.6-.1.3.2 1 .7 1.5.5.4.6.3.2-.4-.3-.6-.2-1.4.4-1.8.6-.3 1.3 0 1.6.9.3.9 1.2 1.2 2.1.9 1.1-.4 1.4-.2.9.6-.4.6-.4 1.1.1 1 2.3-.4 3.5.2 3 1.6-.4.8-.3 1.7.2 1.9 1.6 1 .8-3-1-5-1.5-1.6-1.6-2.1-.5-2.1.8 0 1.4.5 1.3 1.1-.1.6.4 1 1.1.8.8-.1 1.1.2.7.8-.3.5-.1 1 .5 1s.9.4.6.9c-.3.5.1 1.1.9 1.5 1.2.4 1.4-.2 1.1-3.4-.2-2.2 0-3.8.4-3.5.4.2.6 2.7.6 5.4-.2 3.7 0 4.6.8 3.6.6-.8 2.7-1.7 4.6-2 1.9-.3 3-.2 2.4.2-1.2.9-2.8 4.4-2.5 5.6 0 .4-.6 1-1.4 1.3-.8.4-1.5 1.2-1.5 2s-.5 1.4-1.1 1.4c-.5 0-.7.4-.4 1 .3.5.1 1-.5 1s-.8.4-.5 1c.3.5.1 1-.6 1s-.9.3-.6.7c.4.3 0 1.7-.9 3.1-.9 1.3-1.1 2.1-.5 1.8.7-.5.9-.1.5.8-.3.9-1.1 1.6-1.8 1.6-.6 0-.4.5.4 1s1 1 .4 1-1 1-.9 2.2c.1 1.3-.2 3.1-.6 4-.5 1-.5 1.9 0 2.2.5.4.8 1.8.6 3.4-.2 1.5.2 3.3.7 3.9.6.7.8 2 .4 2.8-.3.9.1 1.8.9 2.1.8.4 1.2 1 .9 1.5-.3.5 0 .9.5.9.6 0 .9 1 .7 2.2-.3 1.3-.5 2.3-.6 2.3-.3 0-1.1 4.1-1.2 6.3 0 1.2-.4 2.5-.9 2.8-.5.3-.4 1.4.2 2.6.6 1.1.7 1.8.1 1.4-.5-.3-1.2.5-1.4 1.9-.3 1.3-.2 2.3.2 2 .3-.2.5 2.4.4 5.8-.1 3.4.3 6.8.8 7.4.7.9.7 1.3-.1 1.3-.8 0-.9.6-.3 1.8.5.9.8 2.7.7 4-.1 1.3.2 2.5.6 2.8.4.2.6 1.3.4 2.4-.2 1.2 0 1.8.6 1.5.8-.5 1.4 1.5 1 3.7 0 .5.3.8.9.8.5 0 1 .9 1 2s.5 2 1 2c.6 0 1 1.1 1 2.5s.5 2.4 1.2 2.3c.7-.2 1.3.3 1.4.9.1.7.2 1.8.3 2.4 0 .5.5.7 1.1.4.5-.3 1 .1 1 .9 0 .9 2.4 3.9 5.3 6.8 2.8 2.8 5.1 5.5 4.9 6-.1.4.3.8.9.8.5 0 .8.4.4.9-.3.5-.1 1.3.5 1.6.8.5.8 1.1 0 2-.7.8-.9 1.9-.5 2.5.3.5.2 1-.4 1-.6 0-.8.6-.5 1.4.3.8-.2 2.6-1.1 4-1 1.4-1.4 2.6-1 2.6.4 0 .2.6-.4 1.3-.6.8-.8 1.7-.4 2 .3.4 0 .7-.7.7s-1 .3-.7.7c.4.3.2 1.2-.4 2-.6.7-.8 1.3-.5 1.3.4 0 .1 1-.6 2.2-.7 1.3-1.3 2.6-1.4 3-.1.5-.3 1-.4 1.3-.1.3-.3 1.3-.4 2.2-.1 1-.5 2.4-.9 3-.5.7-.4 1.3.1 1.3.4 0 .8 1.6.7 3.5-.1 2 0 3.3.3 3.1.2-.3 2.1.6 4.2 1.9 2.8 1.8 4 2.1 4.9 1.2.8-.8 1.1-.8 1.1.2 0 1.1.3 1.1 1.5.1s1.5-1 1.5.1c.1 1 .4.9 1.1-.3.5-.9 1.6-1.5 2.4-1.2.8.3 2.4-.3 3.6-1.5 1.2-1.1 2.6-1.8 3.1-1.5.5.3.7.1.6-.4-.2-.5.9-2.1 2.4-3.5s2.5-2.7 2.2-3c-.9-.8 3.2-6.7 4.2-5.9.4.4.3 0-.4-1-.9-1.1-.9-1.7-.2-2 1-.3 1.7-2.4 1.9-5.6.1-.8.6-1 1.4-.6.7.5.6 0-.3-1.1-1.4-1.7-1.3-1.8.3-1.2 1.4.5 1.6.3.8-1.2-.7-1.3-.6-2.4.5-4 .9-1.2 1.4-2.5 1.1-2.7-.8-.9 1.4-6.5 2.3-5.9.4.3.6-.4.3-1.5-.4-1.4 0-2 1.1-2 1 0 1.4-.5 1.1-1-.3-.6-.1-1 .4-1 .6 0 1-.3.9-.8-.2-.4 0-.7.4-.7.3 0 1.9-1.4 3.3-3 1.5-1.7 2.5-2.5 2.1-1.8-.5.8 0 .8 1.8 0 1.3-.7 2.2-1.6 1.9-2.2-.4-.5-.3-.7.1-.3.4.3 2.5 0 4.6-.7 2.9-1 4.1-1.1 5-.2 1 .9 1.1.9.5-.2-.6-1.1-.1-1.3 2.4-.9 1.7.2 3.1.1 3.1-.3 0-.3 1.4-.5 3-.4 1.7.1 3-.2 3-.9s.3-.7.8-.1c1 1.4 3.5 1.8 2.6.4-.4-.7-.1-1 .7-.7.8.3 2-.2 2.7-1.1 1.1-1.3 1.2-1.3.6-.1-.4.8.4.4 1.7-1 1.3-1.4 2-2.8 1.6-3.1-.5-.4-.4-.8.3-1.1 1.7-.5 2.2-3.8.7-3.8-.8 0-.7-.3.1-.9.8-.4 1.4-1.2 1.4-1.6 0-.4-.6-1.2-1.4-1.6-1-.7-1-.9 0-.9.8 0 1-.5.6-1.2s-.9-2.3-1-3.6c-.2-1.3-.9-3.1-1.6-4-1-1.2-1-1.4 0-.8.6.4 1.2.2 1.2-.3 0-.6-.5-1.1-1.1-1.1-.5 0-.7-.5-.4-1 .4-.6.1-1.8-.7-2.7-.9-1.2-.9-1.5 0-.9.6.4 1.2.2 1.2-.3 0-.6-.4-1.1-.8-1.1-.5 0-.7-1.5-.6-3.2.1-1.8-.3-3.7-.9-4.1-.7-.5-.3-.7 1.1-.4 1.8.4 2.1.3 1.3-.7-1.4-1.6-.4-2.7 1.7-1.9 1 .4 1.3.2.8-.5-.4-.7-.3-1.2.3-1.2.5 0 1.3.5 1.6 1 .5.7 1.1.8 1.8.1.8-.6 1.9-.5 3.1.5 2.4 1.7 4 1.8 3 .2-.5-.7-.3-.8.7-.2.8.5 1.9.9 2.4.9.6.1.9.7.7 1.5-.2 1 0 1.1 1 .2.8-.6 1.9-.7 2.6-.3 1.7 1 7 .5 8.6-.8.8-.7 1.8-1.1 2.2-1 1.5.4 4.4-1.3 3.9-2.1-.3-.5.4-1.1 1.5-1.5 1.1-.4 1.8-1 1.5-1.5-.3-.5.1-1.4.8-2.2 1.5-1.4 1.5-1.5 2-10.6.3-3.6 0-6.2-.6-6.2-.5 0-.7-.9-.4-2 .3-1.1.1-2-.4-2-.4 0-.6-.7-.3-1.5.4-.8.2-1.5-.4-1.5-.5 0-.8-1.1-.6-2.6.2-2 0-2.3-1.1-1.4-1.1 1-1.3.8-1-.9.2-1.2 0-2.1-.5-2.1-1.4 0-4-5.9-2.8-6.6.5-.3.7-1.7.4-3-.4-1.3-.3-2.4.1-2.4.5 0 .8-2.1.7-4.8 0-2.6.4-5.3.9-6 .6-.7.6-1.2 0-1.2-.5 0-.8-1.9-.8-4.3.1-2.3-.3-4.8-.9-5.6-.8-1.1-.8-1.3.2-.7.6.4 1.2.2 1.2-.3 0-.6-.5-1.1-1.1-1.1-.8 0-.7-.5.1-1.6 1.1-1.2 1.1-1.5-.1-1.2-.8.2-1.3-.3-1.1-1.1.1-.7-.3-1.9-.9-2.7-.7-.9-.8-1.4-.1-1.4.6 0 1.3.6 1.5 1.2.3.8.6.6.6-.4.1-1 .6-1.7 1.2-1.5.6.1 1.2-.8 1.4-2.1.1-1.2-.3-2.2-.8-2.2s-.7.8-.5 1.8c.4 1.5-.1 1.8-2.3 1.8-1.5 0-2.6-.3-2.3-.7.2-.5 1.1-.6 1.9-.2 1 .3 1.5-.1 1.5-1.2 0-1-.5-1.3-1.2-.9-.6.4-.8.3-.5-.3.4-.6 1.7-1 2.9-.9 1.9.1 2.3.7 2.3 3.2-.1 2.2.3 3 1.2 2.7 1-.4 1-.9.3-1.8-1.2-1.5 2.3-5.1 4-4 1.4.9.3 2.5-1.4 1.9-.8-.3-1.7-.1-2.1.5-.5 1 .7 1.5 2.8 1.2.4 0 .7.4.7 1.1 0 .6.6.4 1.3-.7 1-1.2 1.6-1.4 2.1-.7.4.7 1.2 1.2 1.9 1.2.6 0 .2-.7-.9-1.6-1.8-1.4-1.8-1.5.6-.9 2.1.5 2.2.4.7-.5-.9-.6-2.1-.9-2.6-.6-.4.3-1.4-.7-2.1-2.2-1.9-3.8-2-4.9-.4-4.9 1 0 1.1.4.3 1.4-.9.9-.7 1.4.5 1.9.9.3 1.3 1 1 1.5-.3.5.6 1 2 1 1.4.1 3.1.3 3.6.4.6.1 1.3.3 1.8.4.4.1.1.5-.6 1-1.1.7-1.1.9.1 1.4 1.5.6 1.7-.9.4-3-.4-.6-.3-1.4.3-1.8.5-.3 1-.1 1 .5 0 .7.6 1 1.3.8.6-.3 1.2-1.1 1.2-1.9 0-.8.9-1.4 2.1-1.3 1.2 0 2-.6 2-1.7 0-1.5-.3-1.5-2.1-.3-1.2.8-2.5 1.1-3 .7-.4-.5-.5-.2 0 .6.6 1 .4 1.2-.5.6-.8-.5-1.1-.4-.7.2.3.5 0 1-.8 1s-1.5-.4-1.5-.8c0-.5-.7-.6-1.5-.3-.8.4-1.2 1-.9 1.5.3.5 1 .6 1.6.3.7-.4.8-.2.4.5-.6.8-1.2.9-2 .2-.7-.6-1.5-1-1.7-.8-.3.1.3-.5 1.3-1.4.9-.9 1.4-2 1-2.5-.4-.5.1-.2 1.1.6 1.6 1.2 2 1.2 2.7 0 .5-.8 1.2-1.1 1.6-.8 1 1.1 4.6-1.1 3.8-2.3-.4-.7.1-.7 1.4 0 1.4.8 1.9 1.7 1.5 2.9-.5 1.4-.3 1.5.7.5 1.1-1 1.1-1.5 0-2.8-.8-.9-.8-1.5-.2-1.5.6 0 1.4.4 1.7 1 .3.5 1.4 1 2.3 1 1.1 0 .7-.6-1.2-1.5-1.5-.8-3.3-1.2-3.8-.9-.7.4-.7 0 0-1.2.5-1.1.7-2.6.5-3.4-.4-1.3-.3-1.3.6 0 .5.8.7 1.8.4 2.4-.3.5-.1.6.4.3.6-.4 1.3 0 1.7.8.3.8 1.1 1.5 1.8 1.5 1 0 1-.2-.1-.9-1-.7-1.1-1.3-.2-3 .7-1.1 1.7-2.1 2.4-2.1.8 0 .8-.3.2-.8-1.5-1-1.3-3.4.4-4 .8-.3 1.1 0 .8.5-.3.5-.1 1.5.5 2.3.8 1.2.9 1.2.4-.3-.3-.9 0-1.7.6-1.7.7 0 .3-.6-.8-1.4-1.4-1.1-2.1-1.1-2.6-.3-.6.9-.8.8-.8-.1 0-.7-.5-1-1.1-.6-.8.5-.8.9.1 1.4.9.5.9.9.1 1.4-.6.4-1.1.2-1.1-.5s-.3-.9-.6-.6c-.4.4-.1 1.3.5 2.1.8.9.8 1.6.2 2-.6.4-.8 1.4-.5 2.4.5 1.4.4 1.4-.4.2-.6-.8-.8-1.8-.6-2.2.5-.8-.9-1.2-3.6-.9-1.3.2-1.3 0-.1-.8.8-.5 2.1-.7 2.9-.3 1 .3 1.3.1.8-.7-.4-.6-.3-1.8.3-2.4 1.1-1.5-2-7.7-3.9-7.7-.6 0-.9-.4-.6-.9.4-.5 0-1.2-.6-1.4-.8-.4-.9-.6-.2-.6.7-.1 1.9 1 2.8 2.4.9 1.4 2.2 2.5 2.8 2.5.6 0 .5-.7-.5-1.8-1.1-1.2-1.3-2.2-.6-3.5.6-.9.7-1.7.3-1.7-.3 0-.2-.6.4-1.3 1.1-1.3 1.1-4.2-.1-5.3-.3-.4-.4.6-.1 2.1.3 1.5.1 2.4-.5 2.1-.5-.3-.8.2-.6 1.1.3 2.2-.4 3.5-1.4 2.8-.5-.2 0-3.5 1-7.2 3.7-13.1 2.2-24.1-4.8-35.5l-3.5-5.7-7.7-1.7c-5.3-1.2-8.5-2.6-10.6-4.5-2.5-2.3-3.3-2.6-4.9-1.7zm29.9 61.7c.3.5.2 1.2-.3 1.5-.5.3-.9-.1-.9-.9 0-1.7.3-1.9 1.2-.6zm2.5 4.2c0 1.2-2.7 1.2-3.5-.1-.4-.6.1-.7 1.1-.3 1.3.5 1.5.3.9-.7-.5-.9-.4-1.1.3-.6.7.4 1.2 1.1 1.2 1.7zm-60 3.3c0 .6-.5.5-1.2-.2-2.4-2.4-3.1-1.2-.8 1.3 2.4 2.6 2.2 3.6-.3 1.1-1.1-1.2-1.5-1.1-2.6.6-1.1 1.8-1 1.9.9 1.3 2.1-.7 2.1-.6.4 1.4-1.9 2.1-2.6 6.1-1.2 6.1.4 0 .8-.9.8-2s.4-2 1-2c1.3 0 .1 3.2-1.7 4.7-.8.6-1.2 1.7-.8 2.3.5.8 1.1.6 1.9-.6.7-.9 1.9-1.4 2.7-1.1 1 .4.9.6-.4.6-1 .1-1.6.5-1.2 1.1.3.5 1.1.8 1.8.6.7-.1.9-.1.4.1-.4.3-.4 1-.1 1.6.5.8.2.8-.7-.1-2-1.8-3.4-1.5-1.8.5.8.9.9 1.4.2 1-.6-.4-1.3-.2-1.5.5-.3.7-1 .8-1.7.4-.9-.6-1-1.1-.2-1.9.7-.7.7-1.4 0-2.3-1.8-2.1-2-6.1-.4-7.4 1.2-1 1.3-1.6.4-2.6-.6-.8-1.6-1.1-2.2-.7-.6.4-.1-.7 1-2.3 1.6-2.2 1.9-3.4 1.2-4.7-1-1.6-.8-1.6 2.5 0 2 .9 3.6 2.1 3.6 2.7zm1.7-2.2c-.3.8-.6.5-.6-.6-.1-1.1.2-1.7.5-1.3.3.3.4 1.2.1 1.9zm50.3.3c-.5.7-.8 1.4-.5 1.7.3.2-.2.5-1 .5-1 0-1.2-.4-.5-1.2.5-.7.8-1.4.5-1.7-.3-.2.2-.5 1-.5 1 0 1.2.4.5 1.2zm5.3.8c.7-.3.9-.2.4.2-.4.5-1.6.9-2.7 1-1.6.1-1.7-.1-.8-1.3.8-.9 1.4-1 1.6-.3.2.6.9.8 1.5.4zM198.5 82c.3.5.1 1-.4 1-.6 0-1.1-.5-1.1-1 0-.6.2-1 .4-1 .3 0 .8.4 1.1 1zm37.3 1.5c-.3.3-.9-.2-1.2-1.2-.6-1.4-.5-1.5.5-.6.7.7 1 1.5.7 1.8zm-177.1 0c0 .8-.4 1.2-.9.9-.5-.3-.6-1-.3-1.5.9-1.3 1.2-1.1 1.2.6zM231 82.4c0 .2-.8 1-1.7 1.7-1.6 1.3-1.7 1.2-.4-.4 1.3-1.6 2.1-2.1 2.1-1.3zM208.5 84c.3.5.1 1-.4 1-.6 0-1.1-.5-1.1-1 0-.6.2-1 .4-1 .3 0 .8.4 1.1 1zm8.1.5c-.1.8-.5 1.7-.8 2.1-.5.4-.4-1.6.1-3.4.3-.9.9.1.7 1.3zm9.5.2c1.3 1.7 1.3 1.7-.6.3-1.1-.8-2.2-1.6-2.4-1.7-.2-.2 0-.3.6-.3s1.7.8 2.4 1.7zm-45.6.3c.3.6-.1.7-.9.4-1.8-.7-2.1-1.4-.7-1.4.6 0 1.3.4 1.6 1zm32.6.7c1.3 1.6 1.2 1.7-.3.4-1.7-1.3-2.2-2.1-1.4-2.1.2 0 1 .8 1.7 1.7zm24.4.2c-.8 1.4-2.5 1.4-2.5 0 0-.5.5-.7 1-.4.6.3 1 .1 1-.6s.3-1 .6-.6c.3.3.3 1-.1 1.6zm-172 0c-.9.8-3.6 1-3 .2.2-.4 1.1-.8 2-.8.8 0 1.3.3 1 .6zm156.5-.5c0 .2-.8 1-1.7 1.7-1.6 1.3-1.7 1.2-.4-.4 1.3-1.6 2.1-2.1 2.1-1.3zM206.4 89c-.6.6-1 .3-1-1s.4-1.6 1-1c.7.7.7 1.3 0 2zm-136-.4c.3.8.2 1.2-.4.9-.6-.3-1-1-1-1.6 0-1.4.7-1.1 1.4.7zm154.5-1.3c-.2.1-1.3.9-2.4 1.7-1.9 1.4-1.9 1.4-.6-.3.7-.9 1.8-1.7 2.4-1.7.6 0 .8.1.6.3zm5.3 2.9c-.6.6-1.2.6-1.7-.3-.5-.8-.4-1 .3-.5.7.4 1.2 0 1.3-1.1 0-1.2.2-1.3.6-.5.3.8.1 1.8-.5 2.4zm4.2-1.7c.3.8.1 1.5-.3 1.5-.5 0-1.1-.7-1.5-1.5-.3-.8-.1-1.5.3-1.5.5 0 1.1.7 1.5 1.5zm-21.7 1c0 .8-1 2.3-2.1 3.2-2.1 1.8-2.1 1.8-.2-.5 1.1-1.2 1.6-2.2 1.2-2.2-.4 0-.4-.5-.1-1 .9-1.4 1.2-1.3 1.2.5zm-27.7-.1c0 .2-.7.7-1.6 1-.8.3-1.2.2-.9-.4.6-1 2.5-1.4 2.5-.6zm3.7 1.9c.1 1.1.1 1.8 0 1.6-.2-.2-.8-1.1-1.5-2-.9-1.2-.9-1.6.1-1.6.7 0 1.4.9 1.4 2zm4.3-.9c-.7.7-1.3.7-2 0-.6-.6-.3-1 1-1s1.6.4 1 1zm8.4-.2c-.3.4-.9.8-1.5.8-.5 0-.9-.4-.9-.8 0-.5.7-.9 1.5-.9s1.2.4.9.9zm8.6-.8c0 .2-.8 1-1.7 1.7-1.6 1.3-1.7 1.2-.4-.4 1.3-1.6 2.1-2.1 2.1-1.3zm7.4.8c-.3.4-.9.8-1.5.8-.5 0-.9-.4-.9-.8 0-.5.7-.9 1.5-.9s1.2.4.9.9zM60.5 94c-.3.5-.1 1.1.5 1.5.5.3 1 1.1 1 1.8 0 .6-.6.2-1.4-.8-.8-1.1-1.2-2.3-1-2.7.3-.5 0-.8-.5-.8-.6 0-1.1-.5-1.1-1.1 0-.8.5-.8 1.5.1.8.7 1.3 1.6 1 2zm9.9-2.2c.2.4-.5.9-1.7.9-1.7.2-1.9 0-.7-.7 1.8-1.2 1.8-1.2 2.4-.2zm115 0c.3.5-.1.9-.9.9s-1.2-.4-.9-.9c.3-.4.7-.8.9-.8.2 0 .6.4.9.8zm11.6-.4c0 .3-.4.8-1 1.1-.5.3-1 .1-1-.4 0-.6.5-1.1 1-1.1.6 0 1 .2 1 .4zm8 1.1c-.5.7-.9 1.4-.7 1.6.1.2 0 .3-.2.1-1.1-.7-.7-2.9.5-2.9.9 0 1.1.4.4 1.2zm21-1c0 .2-.6.8-1.3 1.4-1 .8-1.4.7-1.4-.2 0-.8.6-1.4 1.4-1.4.7 0 1.3.1 1.3.2zM67.1 95.7c1.3 1.6 1.2 1.7-.3.4-1-.7-1.8-1.5-1.8-1.7 0-.8.8-.3 2.1 1.3zm3.2-.2c-.3.9-.8 1.4-1 1.1-.3-.3-.2-.9.2-1.5.9-1.6 1.5-1.3.8.4zm47 .2c-.3.7-.6 1.3-.8 1.3-.2 0-.5-.6-.8-1.3-.3-.8.1-1.4.8-1.4.7 0 1.1.6.8 1.4zm92.7-.3c0 .2-.8 1-1.7 1.7-1.6 1.3-1.7 1.2-.4-.4 1.3-1.6 2.1-2.1 2.1-1.3zm7 .6c0 .5-.4 1-1 1-.5 0-1-.5-1-1 0-.6.5-1 1-1 .6 0 1 .4 1 1zM65.1 97.7c1.3 1.6 1.2 1.7-.3.4-1-.7-1.8-1.5-1.8-1.7 0-.8.8-.3 2.1 1.3zm8 0c1.3 1.6 1.2 1.7-.3.4-1-.7-1.8-1.5-1.8-1.7 0-.8.8-.3 2.1 1.3zm17.3.2c.3.5-.2 1.5-1.2 2.2-1.5 1.2-1.6 1.2-.5-.2.7-.9 1-1.9.6-2.2-.3-.4-.4-.7 0-.7.3 0 .8.4 1.1.9zm14-.1c.3.5-.1.9-.9.9s-1.2-.4-.9-.9c.3-.4.7-.8.9-.8.2 0 .6.4.9.8zm102 .8c.3.8.2 1.2-.4.9-.6-.3-1-1-1-1.6 0-1.4.7-1.1 1.4.7zm-127.7.7c0 .7-.9 1.4-2 1.4-1.9.2-1.9.2-.1-1.2 1.1-.8 1.9-1.5 2-1.5 0 0 .1.6.1 1.3zm20.3-.9c0 .2-.8 1-1.7 1.7-1.6 1.3-1.7 1.2-.4-.4 1.3-1.6 2.1-2.1 2.1-1.3zm-14.1.9c-.2.2-1.1.8-2 1.5-1.2.9-1.6.9-1.6-.1 0-.7.9-1.4 2-1.4 1.1-.1 1.8-.1 1.6 0zm3.6 3.5c-.3.3-1.1 0-1.8-.7-.9-1-.8-1.1.6-.5 1 .3 1.5.9 1.2 1.2zm-7 1.2c-.3.5-1.2 1-1.8 1-.7 0-.6-.4.3-1 1.9-1.2 2.3-1.2 1.5 0zm-11 3.8c-.3.3-1.1 0-1.8-.6-.8-.7-1.6-.9-1.9-.6-.3.2-.8-.2-1.2-1.1-.5-1.4-.2-1.4 2.4.1 1.6 1 2.7 2 2.5 2.2zm18.6-1.5c-.6.8-.9 1.6-.6 1.8.2.3-.6.5-2 .5-1.3 0-2.1-.4-1.9-.8.3-.5.9-.6 1.4-.3.4.3 1.3-.2 2-1s1.5-1.5 1.7-1.5c.3 0 0 .6-.6 1.3zm3.6-.6c-.4.3-.1 1.3.6 2.2 1.1 1.4 1 1.4-.5.2-1.6-1.2-1.6-3.1-.1-3.1.4 0 .3.3 0 .7z"/><path d="M175 80c-.6 1.1-.8 2-.6 2 .3 0 1-.9 1.6-2 .6-1.1.8-2 .6-2-.3 0-1 .9-1.6 2zM167.6 64.2c.3.5 1 .6 1.5.3 1.3-.9 1.1-1.2-.6-1.2-.8 0-1.2.4-.9.9zM243.4 63.9c.3.5-.1 1.4-.9 2.1-1.2 1-1.3 1.6-.4 2.7.7.8 1.8 1.2 2.5.9.7-.3 1.5.2 1.8 1 .7 1.9 2.2 1.8 3-.2.5-1.4.4-1.5-.8-.5-1.1 1-1.6.7-2.4-1.6-.7-1.7-1.1-2.1-1.1-1.1-.1 1-.5 1.8-1 1.8-1 0-.9-2.6.2-3.6 1-1.1.8-2.4-.4-2.4-.5 0-.8.4-.5.9z"/><path d="M247 66c0 .5.5 1 1.1 1 .5 0 .7-.5.4-1-.3-.6-.8-1-1.1-1-.2 0-.4.4-.4 1zM169.5 67.1c-.4.6-.5 1.2-.2 1.5.2.3.7-.2 1-1.1.7-1.7.1-2-.8-.4zM57.7 72.5c.3.8.9 1.2 1.4.9 1.2-.7 1.1-1.1-.5-1.7-1-.4-1.3-.1-.9.8zM242.6 71.8c-.7 1.1.7 2.8 2.2 2.6.6-.1 2-.2 3-.3 1.2-.1.9-.5-1.2-1.6-3.3-1.7-3.3-1.7-4-.7zm2.9 1.2c.3.6-.1.7-.9.4-1.8-.7-2.1-1.4-.7-1.4.6 0 1.3.4 1.6 1zM168.7 80.1c.7.7 1.5 1 1.8.7.3-.3-.2-.9-1.2-1.2-1.4-.6-1.5-.5-.6.5zM247 83c-.9.6-1 1-.3 1 .6 0 1.5-.5 1.8-1 .8-1.2.4-1.2-1.5 0zM165.3 84.5c0 .8.4 1.2.9.9.5-.3.6-1 .3-1.5-.9-1.3-1.2-1.1-1.2.6zM53.5 85.1c-.6.8-.4 1 .5.4 1-.6 1.2-.4.6 1.1-1.6 4-1.7 4.8-.1 2 1.1-1.8 1.3-3.2.7-3.8-.6-.6-1.2-.5-1.7.3zM169.9 85.7c0 .5-.2 1.6-.4 2.6-.2 1.1 0 1.6.3 1.2.4-.4.7-1 .7-1.3 0-.4.4-1.3.8-2 .5-.7.4-1.2-.2-1.2-.6 0-1.1.3-1.2.7zM245.5 86c.3.5.8 1 1.1 1 .2 0 .4-.5.4-1 0-.6-.5-1-1.1-1-.5 0-.7.4-.4 1zM116.7 90.3c-.3.8 0 1.4.7 1.4s1.3-.6 1.3-1.4c0-.7-.4-1.3-.8-1.3s-.9.6-1.2 1.3zM235 98.1c0 .5.5.7 1 .4.6-.3 1-.8 1-1.1 0-.2-.4-.4-1-.4-.5 0-1 .5-1 1.1zM85 115.1c0 .5-.4.7-1 .4-.5-.3-1-.1-1 .4 0 .6.7 1.1 1.5 1.1s1.5-.7 1.5-1.5-.2-1.5-.5-1.5-.5.5-.5 1.1z"/></svg>